<svg id="visual" viewBox="0 0 900 600" width="900" height="600" xmlns="http://www.w3.org/2000/svg" xmlns:xlink="http://www.w3.org/1999/xlink" version="1.1"><rect x="0" y="0" width="900" height="600" fill="#001220"></rect><defs><linearGradient id="grad1_0" x1="33.3%" y1="100%" x2="100%" y2="0%"><stop offset="20%" stop-color="#001220" stop-opacity="1"></stop><stop offset="80%" stop-color="#001220" stop-opacity="1"></stop></linearGradient></defs><defs><linearGradient id="grad2_0" x1="0%" y1="100%" x2="66.7%" y2="0%"><stop offset="20%" stop-color="#001220" stop-opacity="1"></stop><stop offset="80%" stop-color="#001220" stop-opacity="1"></stop></linearGradient></defs><g transform="translate(900, 600)"><path d="M-270.4 0C-257.4 -43.6 -244.3 -87.2 -223.4 -129C-202.5 -170.8 -173.8 -210.9 -135.2 -234.2C-96.7 -257.5 -48.3 -263.9 0 -270.4L0 0Z" fill="#ffac05"></path></g><g transform="translate(0, 0)"><path d="M270.4 0C260.1 45.2 249.9 90.4 228.6 132C207.4 173.6 175.1 211.7 135.2 234.2C95.3 256.7 47.6 263.5 0 270.4L0 0Z" fill="#ffac05"></path></g></svg>